<svg xmlns="http://www.w3.org/2000/svg" viewBox="0 0 1200 1200"><path fill="#fff" d="M376.8 323.9h446.4v552.2H376.8z"/><linearGradient id="a" gradientUnits="userSpaceOnUse" x1="600" y1="162.072" x2="600" y2="1033.76" gradientTransform="matrix(1 0 0 -1 0 1197.89)"><stop offset="0" stop-color="#1ba94c"/><stop offset="1" stop-color="#32c766"/></linearGradient><path d="M983.8 404.5c-.2-1.8-.3-3.6-.6-5.5-1.9-11.3-7.6-21.6-16.1-29.1-.1-.2-.2-.3-.3-.3-1.8-1.4-3.6-2.8-5.5-4-52.7-39-107.5-74.9-164.3-107.7-57.1-33-116.1-62.8-176.6-89.1-1.2-.6-2.5-1.1-3.8-1.6-.2-.1-.4-.2-.6-.2-5.1-1.9-10.5-2.8-15.9-2.8-5.7 0-11.3 1-16.6 3-.8.3-1.6.6-2.3 1-121 52.6-235.6 118.7-341.7 197-2.2 1.5-4.3 3.1-6.5 4.8-.1 0-.2.1-.2.2-8.4 7.6-14 17.8-15.9 29-.3 1.8-.4 3.6-.6 5.5-14.9 131.1-14.8 263.5.2 394.5 1.6 13.3 8.4 25.5 19.1 33.7.9.7 1.8 1.3 2.7 1.9 52.5 38.9 107.2 74.7 163.8 107.2 57 32.9 115.8 62.6 176.1 88.9h.2c1.1.6 2.3 1 3.5 1.5 11.9 4.7 25.2 4.7 37.1-.1.3-.2.7-.3 1-.4.8-.4 1.8-.8 2.6-1.2 60.2-26.3 119-55.9 175.9-88.8 56.5-32.6 111.2-68.4 163.6-107.2.9-.6 1.8-1.3 2.7-1.9 10.6-8.2 17.5-20.3 19.1-33.6 7.6-65.7 11.3-131.8 11.3-198-.3-65.9-4-131.5-11.4-196.7zM779.2 786.2l-60.7 56.5c-3.9 3.6-10 3.6-13.9 0l-60.7-56.5c-4.1-3.8-4.4-10.3-.5-14.4 1.9-2.1 4.6-3.3 7.5-3.3h14.4V646.7H534.8v135.9c0 5.4-4.4 9.8-9.8 9.8h-73.1c-5.4 0-9.8-4.4-9.8-9.8V431.5h-14.4c-5.6 0-10.2-4.6-10.2-10.2 0-2.8 1.2-5.5 3.2-7.5l60.7-56.5c3.9-3.6 10-3.6 13.9 0l60.7 56.5c4.1 3.8 4.4 10.3.5 14.4-1.9 2.1-4.6 3.3-7.5 3.2h-14.4v121.8H665V417.4c0-5.4 4.4-9.8 9.8-9.8h73.1c5.4 0 9.8 4.4 9.8 9.8v351.1h14.4c5.6 0 10.2 4.6 10.2 10.2.2 2.8-1 5.5-3.1 7.5z" fill="url(#a)"/></svg>